solid OpenSCAD_Model
  facet normal -0 0 -1
    outer loop
      vertex -31.5 0 -5
      vertex -30.8116 6.54922 -5
      vertex -30.8116 -6.54922 -5
    endloop
  endfacet
  facet normal 0 -0 -1
    outer loop
      vertex -30.8116 -6.54922 -5
      vertex -30.8116 6.54922 -5
      vertex -28.7767 12.8122 -5
    endloop
  endfacet
  facet normal 0 0 -1
    outer loop
      vertex -30.8116 -6.54922 -5
      vertex -28.7767 12.8122 -5
      vertex -25.484 18.5152 -5
    endloop
  endfacet
  facet normal 0 0 -1
    outer loop
      vertex -26.036 11.592 -5
      vertex -25.484 18.5152 -5
      vertex -21.0776 23.4091 -5
    endloop
  endfacet
  facet normal 0 -0 -1
    outer loop
      vertex -19.0702 21.1796 -5
      vertex -21.0776 23.4091 -5
      vertex -15.75 27.2798 -5
    endloop
  endfacet
  facet normal 0 -0 -1
    outer loop
      vertex -14.25 24.6817 -5
      vertex -15.75 27.2798 -5
      vertex -9.73404 29.9583 -5
    endloop
  endfacet
  facet normal 0 -0 -1
    outer loop
      vertex -8.80698 27.1051 -5
      vertex -9.73404 29.9583 -5
      vertex -3.29265 31.3274 -5
    endloop
  endfacet
  facet normal 0 -0 -1
    outer loop
      vertex -2.97906 28.3439 -5
      vertex -3.29265 31.3274 -5
      vertex 3.29265 31.3274 -5
    endloop
  endfacet
  facet normal 0 0 -1
    outer loop
      vertex 2.97906 28.3439 -5
      vertex 3.29265 31.3274 -5
      vertex 9.73404 29.9583 -5
    endloop
  endfacet
  facet normal 0 0 -1
    outer loop
      vertex 8.80698 27.1051 -5
      vertex 9.73404 29.9583 -5
      vertex 15.75 27.2798 -5
    endloop
  endfacet
  facet normal -0 0 -1
    outer loop
      vertex 14.25 24.6817 -5
      vertex 15.75 27.2798 -5
      vertex 21.0776 23.4091 -5
    endloop
  endfacet
  facet normal -0 0 -1
    outer loop
      vertex 19.0702 21.1796 -5
      vertex 21.0776 23.4091 -5
      vertex 25.484 18.5152 -5
    endloop
  endfacet
  facet normal -0 0 -1
    outer loop
      vertex 23.057 16.7519 -5
      vertex 25.484 18.5152 -5
      vertex 28.7767 12.8122 -5
    endloop
  endfacet
  facet normal -0 0 -1
    outer loop
      vertex 26.036 11.592 -5
      vertex 28.7767 12.8122 -5
      vertex 30.8116 6.54922 -5
    endloop
  endfacet
  facet normal -0 0 -1
    outer loop
      vertex 28.5 0 -5
      vertex 30.8116 6.54922 -5
      vertex 31.5 0 -5
    endloop
  endfacet
  facet normal -0 0 -1
    outer loop
      vertex 27.8772 -5.92548 -5
      vertex 31.5 0 -5
      vertex 30.8116 -6.54922 -5
    endloop
  endfacet
  facet normal -0 0 -1
    outer loop
      vertex 26.036 -11.592 -5
      vertex 30.8116 -6.54922 -5
      vertex 28.7767 -12.8122 -5
    endloop
  endfacet
  facet normal -0 0 -1
    outer loop
      vertex 23.057 -16.7519 -5
      vertex 28.7767 -12.8122 -5
      vertex 25.484 -18.5152 -5
    endloop
  endfacet
  facet normal -0 0 -1
    outer loop
      vertex 19.0702 -21.1796 -5
      vertex 25.484 -18.5152 -5
      vertex 21.0776 -23.4091 -5
    endloop
  endfacet
  facet normal -0 0 -1
    outer loop
      vertex 14.25 -24.6817 -5
      vertex 21.0776 -23.4091 -5
      vertex 15.75 -27.2798 -5
    endloop
  endfacet
  facet normal 0 0 -1
    outer loop
      vertex 8.80698 -27.1051 -5
      vertex 15.75 -27.2798 -5
      vertex 9.73404 -29.9583 -5
    endloop
  endfacet
  facet normal 0 0 -1
    outer loop
      vertex 2.97906 -28.3439 -5
      vertex 9.73404 -29.9583 -5
      vertex 3.29265 -31.3274 -5
    endloop
  endfacet
  facet normal 0 0 -1
    outer loop
      vertex -2.97906 -28.3439 -5
      vertex 3.29265 -31.3274 -5
      vertex -3.29265 -31.3274 -5
    endloop
  endfacet
  facet normal 0 0 -1
    outer loop
      vertex -14.25 -24.6817 -5
      vertex -3.29265 -31.3274 -5
      vertex -9.73404 -29.9583 -5
    endloop
  endfacet
  facet normal 0 0 -1
    outer loop
      vertex -19.0702 -21.1796 -5
      vertex -9.73404 -29.9583 -5
      vertex -15.75 -27.2798 -5
    endloop
  endfacet
  facet normal 0 0 -1
    outer loop
      vertex -30.8116 -6.54922 -5
      vertex -15.75 -27.2798 -5
      vertex -21.0776 -23.4091 -5
    endloop
  endfacet
  facet normal 0 0 -1
    outer loop
      vertex -30.8116 -6.54922 -5
      vertex -21.0776 -23.4091 -5
      vertex -25.484 -18.5152 -5
    endloop
  endfacet
  facet normal 0 0 -1
    outer loop
      vertex -30.8116 -6.54922 -5
      vertex -25.484 -18.5152 -5
      vertex -28.7767 -12.8122 -5
    endloop
  endfacet
  facet normal 0 0 -1
    outer loop
      vertex -27.8772 -5.92548 -5
      vertex -30.8116 -6.54922 -5
      vertex -28.5 0 -5
    endloop
  endfacet
  facet normal 0 0 -1
    outer loop
      vertex 8.80698 -27.1051 -5
      vertex 9.73404 -29.9583 -5
      vertex 2.97906 -28.3439 -5
    endloop
  endfacet
  facet normal 0 0 -1
    outer loop
      vertex -26.036 -11.592 -5
      vertex -30.8116 -6.54922 -5
      vertex -27.8772 -5.92548 -5
    endloop
  endfacet
  facet normal 0 0 -1
    outer loop
      vertex -23.057 -16.7519 -5
      vertex -30.8116 -6.54922 -5
      vertex -26.036 -11.592 -5
    endloop
  endfacet
  facet normal 0 0 -1
    outer loop
      vertex -14.25 -24.6817 -5
      vertex -9.73404 -29.9583 -5
      vertex -19.0702 -21.1796 -5
    endloop
  endfacet
  facet normal 0 0 -1
    outer loop
      vertex -30.8116 -6.54922 -5
      vertex -23.057 -16.7519 -5
      vertex -15.75 -27.2798 -5
    endloop
  endfacet
  facet normal 0 0 -1
    outer loop
      vertex -23.057 -16.7519 -5
      vertex -19.0702 -21.1796 -5
      vertex -15.75 -27.2798 -5
    endloop
  endfacet
  facet normal 0 0 -1
    outer loop
      vertex -8.80698 -27.1051 -5
      vertex -3.29265 -31.3274 -5
      vertex -14.25 -24.6817 -5
    endloop
  endfacet
  facet normal 0 0 -1
    outer loop
      vertex -2.97906 -28.3439 -5
      vertex -3.29265 -31.3274 -5
      vertex -8.80698 -27.1051 -5
    endloop
  endfacet
  facet normal -0 0 -1
    outer loop
      vertex 27.8772 5.92548 -5
      vertex 30.8116 6.54922 -5
      vertex 28.5 0 -5
    endloop
  endfacet
  facet normal 0 0 -1
    outer loop
      vertex 23.057 16.7519 -5
      vertex 28.7767 12.8122 -5
      vertex 26.036 11.592 -5
    endloop
  endfacet
  facet normal 0 0 -1
    outer loop
      vertex 26.036 11.592 -5
      vertex 30.8116 6.54922 -5
      vertex 27.8772 5.92548 -5
    endloop
  endfacet
  facet normal 0 0 -1
    outer loop
      vertex 28.5 0 -5
      vertex 31.5 0 -5
      vertex 27.8772 -5.92548 -5
    endloop
  endfacet
  facet normal 0 0 -1
    outer loop
      vertex 27.8772 -5.92548 -5
      vertex 30.8116 -6.54922 -5
      vertex 26.036 -11.592 -5
    endloop
  endfacet
  facet normal 0 0 -1
    outer loop
      vertex 26.036 -11.592 -5
      vertex 28.7767 -12.8122 -5
      vertex 23.057 -16.7519 -5
    endloop
  endfacet
  facet normal 0 0 -1
    outer loop
      vertex 23.057 -16.7519 -5
      vertex 25.484 -18.5152 -5
      vertex 19.0702 -21.1796 -5
    endloop
  endfacet
  facet normal 0 0 -1
    outer loop
      vertex 19.0702 -21.1796 -5
      vertex 21.0776 -23.4091 -5
      vertex 14.25 -24.6817 -5
    endloop
  endfacet
  facet normal 0 0 -1
    outer loop
      vertex 14.25 -24.6817 -5
      vertex 15.75 -27.2798 -5
      vertex 8.80698 -27.1051 -5
    endloop
  endfacet
  facet normal 0 0 -1
    outer loop
      vertex -23.057 16.7519 -5
      vertex -21.0776 23.4091 -5
      vertex -19.0702 21.1796 -5
    endloop
  endfacet
  facet normal 0 0 -1
    outer loop
      vertex -26.036 11.592 -5
      vertex -21.0776 23.4091 -5
      vertex -23.057 16.7519 -5
    endloop
  endfacet
  facet normal 0 0 -1
    outer loop
      vertex -27.8772 5.92548 -5
      vertex -25.484 18.5152 -5
      vertex -26.036 11.592 -5
    endloop
  endfacet
  facet normal 0 0 -1
    outer loop
      vertex -30.8116 -6.54922 -5
      vertex -25.484 18.5152 -5
      vertex -27.8772 5.92548 -5
    endloop
  endfacet
  facet normal 0 0 -1
    outer loop
      vertex -19.0702 21.1796 -5
      vertex -15.75 27.2798 -5
      vertex -14.25 24.6817 -5
    endloop
  endfacet
  facet normal 0 -0 -1
    outer loop
      vertex -28.5 0 -5
      vertex -30.8116 -6.54922 -5
      vertex -27.8772 5.92548 -5
    endloop
  endfacet
  facet normal 0 0 -1
    outer loop
      vertex -14.25 24.6817 -5
      vertex -9.73404 29.9583 -5
      vertex -8.80698 27.1051 -5
    endloop
  endfacet
  facet normal 0 0 -1
    outer loop
      vertex -8.80698 27.1051 -5
      vertex -3.29265 31.3274 -5
      vertex -2.97906 28.3439 -5
    endloop
  endfacet
  facet normal -0 0 -1
    outer loop
      vertex -2.97906 28.3439 -5
      vertex 3.29265 31.3274 -5
      vertex 2.97906 28.3439 -5
    endloop
  endfacet
  facet normal -0 0 -1
    outer loop
      vertex 2.97906 28.3439 -5
      vertex 9.73404 29.9583 -5
      vertex 8.80698 27.1051 -5
    endloop
  endfacet
  facet normal -0 0 -1
    outer loop
      vertex 8.80698 27.1051 -5
      vertex 15.75 27.2798 -5
      vertex 14.25 24.6817 -5
    endloop
  endfacet
  facet normal 0 0 -1
    outer loop
      vertex 14.25 24.6817 -5
      vertex 21.0776 23.4091 -5
      vertex 19.0702 21.1796 -5
    endloop
  endfacet
  facet normal 0 0 -1
    outer loop
      vertex 19.0702 21.1796 -5
      vertex 25.484 18.5152 -5
      vertex 23.057 16.7519 -5
    endloop
  endfacet
  facet normal 0 0 -1
    outer loop
      vertex 2.97906 -28.3439 -5
      vertex 3.29265 -31.3274 -5
      vertex -2.97906 -28.3439 -5
    endloop
  endfacet
  facet normal -0.994522 0.104529 0
    outer loop
      vertex -31.5 0 -5
      vertex -31.5 0 0
      vertex -30.8116 6.54922 -5
    endloop
  endfacet
  facet normal -0.994522 0.104529 0
    outer loop
      vertex -30.8116 6.54922 -5
      vertex -31.5 0 0
      vertex -30.8116 6.54922 0
    endloop
  endfacet
  facet normal -0.994522 -0.104529 -0
    outer loop
      vertex -31.5 0 -5
      vertex -30.8116 -6.54922 -5
      vertex -31.5 0 0
    endloop
  endfacet
  facet normal -0.994522 -0.104529 0
    outer loop
      vertex -31.5 0 0
      vertex -30.8116 -6.54922 -5
      vertex -30.8116 -6.54922 0
    endloop
  endfacet
  facet normal -0.951057 -0.309017 -0
    outer loop
      vertex -30.8116 -6.54922 -5
      vertex -28.7767 -12.8122 -5
      vertex -30.8116 -6.54922 0
    endloop
  endfacet
  facet normal -0.951057 -0.309017 0
    outer loop
      vertex -28.8781 -12.5 0
      vertex -28.7767 -12.8122 -5
      vertex -28.7767 -12.8122 0.540753
    endloop
  endfacet
  facet normal -0.951057 -0.309017 3.47997e-16
    outer loop
      vertex -30.8116 -6.54922 0
      vertex -28.7767 -12.8122 -5
      vertex -28.8781 -12.5 0
    endloop
  endfacet
  facet normal -0.866025 -0.5 -0
    outer loop
      vertex -28.7767 -12.8122 -5
      vertex -25.484 -18.5152 -5
      vertex -28.7767 -12.8122 0.540753
    endloop
  endfacet
  facet normal -0.866025 -0.5 0
    outer loop
      vertex -28.7767 -12.8122 0.540753
      vertex -25.484 -18.5152 -5
      vertex -25.484 -18.5152 3.47926
    endloop
  endfacet
  facet normal -0.866025 -0.5 1.26113e-15
    outer loop
      vertex -28.7767 -12.8122 0.540753
      vertex -25.484 -18.5152 3.47926
      vertex -27.4873 -15.0455 4.40897
    endloop
  endfacet
  facet normal -0.743145 -0.669131 -0
    outer loop
      vertex -25.484 -18.5152 -5
      vertex -21.0776 -23.4091 -5
      vertex -25.484 -18.5152 3.47926
    endloop
  endfacet
  facet normal -0.743145 -0.669131 0
    outer loop
      vertex -25.484 -18.5152 3.47926
      vertex -21.0776 -23.4091 -5
      vertex -21.0776 -23.4091 2.16796
    endloop
  endfacet
  facet normal -0.587785 -0.809017 0
    outer loop
      vertex -21.0776 -23.4091 2.16796
      vertex -21.0776 -23.4091 -5
      vertex -15.75 -27.2798 -5
    endloop
  endfacet
  facet normal -0.587785 -0.809017 0
    outer loop
      vertex -15.75 -27.2798 1.1308
      vertex -21.0776 -23.4091 2.16796
      vertex -15.75 -27.2798 -5
    endloop
  endfacet
  facet normal -0.406737 -0.913545 0
    outer loop
      vertex -15.75 -27.2798 1.1308
      vertex -15.75 -27.2798 -5
      vertex -9.73404 -29.9583 -5
    endloop
  endfacet
  facet normal -0.406737 -0.913545 0
    outer loop
      vertex -9.73404 -29.9583 0.413103
      vertex -15.75 -27.2798 1.1308
      vertex -9.73404 -29.9583 -5
    endloop
  endfacet
  facet normal -0.207912 -0.978148 0
    outer loop
      vertex -9.73404 -29.9583 0.413103
      vertex -9.73404 -29.9583 -5
      vertex -3.29265 -31.3274 -5
    endloop
  endfacet
  facet normal -0.207912 -0.978148 0
    outer loop
      vertex -3.29265 -31.3274 0.0462373
      vertex -9.73404 -29.9583 0.413103
      vertex -3.29265 -31.3274 -5
    endloop
  endfacet
  facet normal 0 -1 0
    outer loop
      vertex -3.29265 -31.3274 0.0462373
      vertex -3.29265 -31.3274 -5
      vertex 3.29265 -31.3274 -5
    endloop
  endfacet
  facet normal 0 -1 0
    outer loop
      vertex 3.29265 -31.3274 0.0462373
      vertex -3.29265 -31.3274 0.0462373
      vertex 3.29265 -31.3274 -5
    endloop
  endfacet
  facet normal 0.207912 -0.978148 0
    outer loop
      vertex 3.29265 -31.3274 0.0462373
      vertex 3.29265 -31.3274 -5
      vertex 9.73404 -29.9583 -5
    endloop
  endfacet
  facet normal 0.207912 -0.978148 0
    outer loop
      vertex 9.73404 -29.9583 0.413103
      vertex 3.29265 -31.3274 0.0462373
      vertex 9.73404 -29.9583 -5
    endloop
  endfacet
  facet normal 0.406737 -0.913545 0
    outer loop
      vertex 9.73404 -29.9583 0.413103
      vertex 9.73404 -29.9583 -5
      vertex 15.75 -27.2798 -5
    endloop
  endfacet
  facet normal 0.406737 -0.913545 0
    outer loop
      vertex 15.75 -27.2798 1.1308
      vertex 9.73404 -29.9583 0.413103
      vertex 15.75 -27.2798 -5
    endloop
  endfacet
  facet normal 0.587785 -0.809017 0
    outer loop
      vertex 15.75 -27.2798 1.1308
      vertex 15.75 -27.2798 -5
      vertex 21.0776 -23.4091 -5
    endloop
  endfacet
  facet normal 0.587785 -0.809017 0
    outer loop
      vertex 21.0776 -23.4091 2.16796
      vertex 15.75 -27.2798 1.1308
      vertex 21.0776 -23.4091 -5
    endloop
  endfacet
  facet normal 0.743145 -0.669131 0
    outer loop
      vertex 21.0776 -23.4091 2.16796
      vertex 21.0776 -23.4091 -5
      vertex 25.484 -18.5152 -5
    endloop
  endfacet
  facet normal 0.743145 -0.669131 0
    outer loop
      vertex 25.484 -18.5152 3.47926
      vertex 21.0776 -23.4091 2.16796
      vertex 25.484 -18.5152 -5
    endloop
  endfacet
  facet normal 0.866025 -0.5 0
    outer loop
      vertex 25.484 -18.5152 3.47926
      vertex 25.484 -18.5152 -5
      vertex 28.7767 -12.8122 -5
    endloop
  endfacet
  facet normal 0.866025 -0.5 1.2532e-15
    outer loop
      vertex 27.4873 -15.0455 4.40897
      vertex 25.484 -18.5152 3.47926
      vertex 28.7767 -12.8122 0.540753
    endloop
  endfacet
  facet normal 0.866025 -0.5 0
    outer loop
      vertex 28.7767 -12.8122 0.540753
      vertex 25.484 -18.5152 3.47926
      vertex 28.7767 -12.8122 -5
    endloop
  endfacet
  facet normal 0.951057 -0.309017 2.94775e-16
    outer loop
      vertex 28.8781 -12.5 0
      vertex 28.7767 -12.8122 -5
      vertex 30.8116 -6.54922 -5
    endloop
  endfacet
  facet normal 0.951057 -0.309017 0
    outer loop
      vertex 28.7767 -12.8122 0.540753
      vertex 28.7767 -12.8122 -5
      vertex 28.8781 -12.5 0
    endloop
  endfacet
  facet normal 0.951057 -0.309017 0
    outer loop
      vertex 30.8116 -6.54922 0
      vertex 28.8781 -12.5 0
      vertex 30.8116 -6.54922 -5
    endloop
  endfacet
  facet normal 0.994522 -0.104529 0
    outer loop
      vertex 30.8116 -6.54922 0
      vertex 30.8116 -6.54922 -5
      vertex 31.5 0 -5
    endloop
  endfacet
  facet normal 0.994522 -0.104529 0
    outer loop
      vertex 31.5 0 0
      vertex 30.8116 -6.54922 0
      vertex 31.5 0 -5
    endloop
  endfacet
  facet normal 0.994522 0.104529 0
    outer loop
      vertex 31.5 0 -5
      vertex 30.8116 6.54922 -5
      vertex 30.8116 6.54922 0
    endloop
  endfacet
  facet normal 0.994522 0.104529 -0
    outer loop
      vertex 31.5 0 0
      vertex 31.5 0 -5
      vertex 30.8116 6.54922 0
    endloop
  endfacet
  facet normal 0.951057 0.309017 0
    outer loop
      vertex 30.8116 6.54922 -5
      vertex 28.7767 12.8122 -5
      vertex 28.7767 12.8122 0
    endloop
  endfacet
  facet normal 0.951057 0.309017 -0
    outer loop
      vertex 30.8116 6.54922 0
      vertex 30.8116 6.54922 -5
      vertex 28.7767 12.8122 0
    endloop
  endfacet
  facet normal 0.866025 0.5 0
    outer loop
      vertex 28.7767 12.8122 -5
      vertex 25.484 18.5152 -5
      vertex 25.484 18.5152 0
    endloop
  endfacet
  facet normal 0.866025 0.5 -0
    outer loop
      vertex 28.7767 12.8122 0
      vertex 28.7767 12.8122 -5
      vertex 25.484 18.5152 0
    endloop
  endfacet
  facet normal 0.743145 0.669131 0
    outer loop
      vertex 25.484 18.5152 -5
      vertex 21.0776 23.4091 -5
      vertex 21.0776 23.4091 0
    endloop
  endfacet
  facet normal 0.743145 0.669131 -0
    outer loop
      vertex 25.484 18.5152 0
      vertex 25.484 18.5152 -5
      vertex 21.0776 23.4091 0
    endloop
  endfacet
  facet normal 0.587785 0.809017 0
    outer loop
      vertex 15.75 27.2798 -5
      vertex 15.75 27.2798 0
      vertex 21.0776 23.4091 -5
    endloop
  endfacet
  facet normal 0.587785 0.809017 0
    outer loop
      vertex 21.0776 23.4091 -5
      vertex 15.75 27.2798 0
      vertex 21.0776 23.4091 0
    endloop
  endfacet
  facet normal 0.406737 0.913545 0
    outer loop
      vertex 9.73404 29.9583 -5
      vertex 9.73404 29.9583 0
      vertex 15.75 27.2798 -5
    endloop
  endfacet
  facet normal 0.406737 0.913545 0
    outer loop
      vertex 15.75 27.2798 -5
      vertex 9.73404 29.9583 0
      vertex 15.75 27.2798 0
    endloop
  endfacet
  facet normal 0.207912 0.978148 0
    outer loop
      vertex 3.29265 31.3274 -5
      vertex 3.29265 31.3274 0
      vertex 9.73404 29.9583 -5
    endloop
  endfacet
  facet normal 0.207912 0.978148 0
    outer loop
      vertex 9.73404 29.9583 -5
      vertex 3.29265 31.3274 0
      vertex 9.73404 29.9583 0
    endloop
  endfacet
  facet normal 0 1 0
    outer loop
      vertex -3.29265 31.3274 -5
      vertex -3.29265 31.3274 0
      vertex 3.29265 31.3274 -5
    endloop
  endfacet
  facet normal 0 1 0
    outer loop
      vertex 3.29265 31.3274 -5
      vertex -3.29265 31.3274 0
      vertex 3.29265 31.3274 0
    endloop
  endfacet
  facet normal -0.207912 0.978148 0
    outer loop
      vertex -9.73404 29.9583 -5
      vertex -9.73404 29.9583 0
      vertex -3.29265 31.3274 -5
    endloop
  endfacet
  facet normal -0.207912 0.978148 0
    outer loop
      vertex -3.29265 31.3274 -5
      vertex -9.73404 29.9583 0
      vertex -3.29265 31.3274 0
    endloop
  endfacet
  facet normal -0.406737 0.913545 0
    outer loop
      vertex -15.75 27.2798 -5
      vertex -15.75 27.2798 0
      vertex -9.73404 29.9583 -5
    endloop
  endfacet
  facet normal -0.406737 0.913545 0
    outer loop
      vertex -9.73404 29.9583 -5
      vertex -15.75 27.2798 0
      vertex -9.73404 29.9583 0
    endloop
  endfacet
  facet normal -0.587785 0.809017 0
    outer loop
      vertex -21.0776 23.4091 -5
      vertex -21.0776 23.4091 0
      vertex -15.75 27.2798 -5
    endloop
  endfacet
  facet normal -0.587785 0.809017 0
    outer loop
      vertex -15.75 27.2798 -5
      vertex -21.0776 23.4091 0
      vertex -15.75 27.2798 0
    endloop
  endfacet
  facet normal -0.743145 0.669131 0
    outer loop
      vertex -25.484 18.5152 -5
      vertex -25.484 18.5152 0
      vertex -21.0776 23.4091 -5
    endloop
  endfacet
  facet normal -0.743145 0.669131 0
    outer loop
      vertex -21.0776 23.4091 -5
      vertex -25.484 18.5152 0
      vertex -21.0776 23.4091 0
    endloop
  endfacet
  facet normal -0.866025 0.5 0
    outer loop
      vertex -28.7767 12.8122 -5
      vertex -28.7767 12.8122 0
      vertex -25.484 18.5152 -5
    endloop
  endfacet
  facet normal -0.866025 0.5 0
    outer loop
      vertex -25.484 18.5152 -5
      vertex -28.7767 12.8122 0
      vertex -25.484 18.5152 0
    endloop
  endfacet
  facet normal -0.951057 0.309017 0
    outer loop
      vertex -30.8116 6.54922 -5
      vertex -30.8116 6.54922 0
      vertex -28.7767 12.8122 -5
    endloop
  endfacet
  facet normal -0.951057 0.309017 0
    outer loop
      vertex -28.7767 12.8122 -5
      vertex -30.8116 6.54922 0
      vertex -28.7767 12.8122 0
    endloop
  endfacet
  facet normal 0.994522 -0.104528 0
    outer loop
      vertex -27.8772 5.92548 -5
      vertex -27.8772 5.92548 0
      vertex -28.5 0 0
    endloop
  endfacet
  facet normal 0.994522 -0.104528 0
    outer loop
      vertex -28.5 0 -5
      vertex -27.8772 5.92548 -5
      vertex -28.5 0 0
    endloop
  endfacet
  facet normal 0.994522 0.104528 0
    outer loop
      vertex -28.5 0 0
      vertex -27.8772 -5.92548 0
      vertex -27.8772 -5.92548 -5
    endloop
  endfacet
  facet normal 0.994522 0.104528 0
    outer loop
      vertex -28.5 0 -5
      vertex -28.5 0 0
      vertex -27.8772 -5.92548 -5
    endloop
  endfacet
  facet normal 0.951057 -0.309017 0
    outer loop
      vertex -26.036 11.592 -5
      vertex -26.036 11.592 0
      vertex -27.8772 5.92548 0
    endloop
  endfacet
  facet normal 0.951057 -0.309017 0
    outer loop
      vertex -27.8772 5.92548 -5
      vertex -26.036 11.592 -5
      vertex -27.8772 5.92548 0
    endloop
  endfacet
  facet normal 0.866025 -0.5 0
    outer loop
      vertex -23.057 16.7519 -5
      vertex -23.057 16.7519 0
      vertex -26.036 11.592 0
    endloop
  endfacet
  facet normal 0.866025 -0.5 0
    outer loop
      vertex -26.036 11.592 -5
      vertex -23.057 16.7519 -5
      vertex -26.036 11.592 0
    endloop
  endfacet
  facet normal 0.743145 -0.669131 0
    outer loop
      vertex -19.0702 21.1796 -5
      vertex -19.0702 21.1796 0
      vertex -23.057 16.7519 0
    endloop
  endfacet
  facet normal 0.743145 -0.669131 0
    outer loop
      vertex -23.057 16.7519 -5
      vertex -19.0702 21.1796 -5
      vertex -23.057 16.7519 0
    endloop
  endfacet
  facet normal 0.587785 -0.809017 0
    outer loop
      vertex -14.25 24.6817 -5
      vertex -14.25 24.6817 0
      vertex -19.0702 21.1796 0
    endloop
  endfacet
  facet normal 0.587785 -0.809017 0
    outer loop
      vertex -19.0702 21.1796 -5
      vertex -14.25 24.6817 -5
      vertex -19.0702 21.1796 0
    endloop
  endfacet
  facet normal 0.406737 -0.913545 0
    outer loop
      vertex -8.80698 27.1051 -5
      vertex -8.80698 27.1051 0
      vertex -14.25 24.6817 0
    endloop
  endfacet
  facet normal 0.406737 -0.913545 0
    outer loop
      vertex -14.25 24.6817 -5
      vertex -8.80698 27.1051 -5
      vertex -14.25 24.6817 0
    endloop
  endfacet
  facet normal 0.207912 -0.978148 0
    outer loop
      vertex -2.97906 28.3439 -5
      vertex -2.97906 28.3439 0
      vertex -8.80698 27.1051 0
    endloop
  endfacet
  facet normal 0.207912 -0.978148 0
    outer loop
      vertex -8.80698 27.1051 -5
      vertex -2.97906 28.3439 -5
      vertex -8.80698 27.1051 0
    endloop
  endfacet
  facet normal 0 -1 0
    outer loop
      vertex 2.97906 28.3439 -5
      vertex 2.97906 28.3439 0
      vertex -2.97906 28.3439 0
    endloop
  endfacet
  facet normal -0 -1 -0
    outer loop
      vertex -2.97906 28.3439 -5
      vertex 2.97906 28.3439 -5
      vertex -2.97906 28.3439 0
    endloop
  endfacet
  facet normal -0.207912 -0.978148 -0
    outer loop
      vertex 8.80698 27.1051 -5
      vertex 8.80698 27.1051 0
      vertex 2.97906 28.3439 0
    endloop
  endfacet
  facet normal -0.207912 -0.978148 -0
    outer loop
      vertex 2.97906 28.3439 -5
      vertex 8.80698 27.1051 -5
      vertex 2.97906 28.3439 0
    endloop
  endfacet
  facet normal -0.406737 -0.913545 -0
    outer loop
      vertex 14.25 24.6817 -5
      vertex 14.25 24.6817 0
      vertex 8.80698 27.1051 0
    endloop
  endfacet
  facet normal -0.406737 -0.913545 -0
    outer loop
      vertex 8.80698 27.1051 -5
      vertex 14.25 24.6817 -5
      vertex 8.80698 27.1051 0
    endloop
  endfacet
  facet normal -0.587785 -0.809017 -0
    outer loop
      vertex 19.0702 21.1796 -5
      vertex 19.0702 21.1796 0
      vertex 14.25 24.6817 0
    endloop
  endfacet
  facet normal -0.587785 -0.809017 -0
    outer loop
      vertex 14.25 24.6817 -5
      vertex 19.0702 21.1796 -5
      vertex 14.25 24.6817 0
    endloop
  endfacet
  facet normal -0.743145 -0.669131 0
    outer loop
      vertex 23.057 16.7519 0
      vertex 19.0702 21.1796 0
      vertex 23.057 16.7519 -5
    endloop
  endfacet
  facet normal -0.743145 -0.669131 0
    outer loop
      vertex 23.057 16.7519 -5
      vertex 19.0702 21.1796 0
      vertex 19.0702 21.1796 -5
    endloop
  endfacet
  facet normal -0.866025 -0.5 0
    outer loop
      vertex 26.036 11.592 0
      vertex 23.057 16.7519 0
      vertex 26.036 11.592 -5
    endloop
  endfacet
  facet normal -0.866025 -0.5 0
    outer loop
      vertex 26.036 11.592 -5
      vertex 23.057 16.7519 0
      vertex 23.057 16.7519 -5
    endloop
  endfacet
  facet normal -0.951057 -0.309017 0
    outer loop
      vertex 27.8772 5.92548 0
      vertex 26.036 11.592 0
      vertex 27.8772 5.92548 -5
    endloop
  endfacet
  facet normal -0.951057 -0.309017 0
    outer loop
      vertex 27.8772 5.92548 -5
      vertex 26.036 11.592 0
      vertex 26.036 11.592 -5
    endloop
  endfacet
  facet normal -0.994522 -0.104528 0
    outer loop
      vertex 28.5 0 0
      vertex 27.8772 5.92548 0
      vertex 28.5 0 -5
    endloop
  endfacet
  facet normal -0.994522 -0.104528 0
    outer loop
      vertex 28.5 0 -5
      vertex 27.8772 5.92548 0
      vertex 27.8772 5.92548 -5
    endloop
  endfacet
  facet normal -0.994522 0.104528 0
    outer loop
      vertex 28.5 0 0
      vertex 28.5 0 -5
      vertex 27.8772 -5.92548 0
    endloop
  endfacet
  facet normal -0.994522 0.104528 0
    outer loop
      vertex 27.8772 -5.92548 0
      vertex 28.5 0 -5
      vertex 27.8772 -5.92548 -5
    endloop
  endfacet
  facet normal -0.951057 0.309017 0
    outer loop
      vertex 27.8772 -5.92548 0
      vertex 27.8772 -5.92548 -5
      vertex 26.036 -11.592 0
    endloop
  endfacet
  facet normal -0.951057 0.309017 0
    outer loop
      vertex 26.036 -11.592 0
      vertex 27.8772 -5.92548 -5
      vertex 26.036 -11.592 -5
    endloop
  endfacet
  facet normal -0.866025 0.5 -6.45443e-16
    outer loop
      vertex 24.0422 -15.0455 4.40897
      vertex 25.5118 -12.5 0
      vertex 23.057 -16.7519 3.95175
    endloop
  endfacet
  facet normal -0.866025 0.5 0
    outer loop
      vertex 26.036 -11.592 -5
      vertex 25.5118 -12.5 0
      vertex 26.036 -11.592 0
    endloop
  endfacet
  facet normal -0.866025 0.5 -2.18002e-16
    outer loop
      vertex 23.057 -16.7519 3.95175
      vertex 25.5118 -12.5 0
      vertex 26.036 -11.592 -5
    endloop
  endfacet
  facet normal -0.866025 0.5 0
    outer loop
      vertex 23.057 -16.7519 3.95175
      vertex 26.036 -11.592 -5
      vertex 23.057 -16.7519 -5
    endloop
  endfacet
  facet normal -0.743145 0.669131 0
    outer loop
      vertex 23.057 -16.7519 3.95175
      vertex 23.057 -16.7519 -5
      vertex 19.0702 -21.1796 2.76534
    endloop
  endfacet
  facet normal -0.743145 0.669131 0
    outer loop
      vertex 19.0702 -21.1796 2.76534
      vertex 23.057 -16.7519 -5
      vertex 19.0702 -21.1796 -5
    endloop
  endfacet
  facet normal -0.587785 0.809017 0
    outer loop
      vertex 19.0702 -21.1796 2.76534
      vertex 19.0702 -21.1796 -5
      vertex 14.25 -24.6817 1.82695
    endloop
  endfacet
  facet normal -0.587785 0.809017 0
    outer loop
      vertex 14.25 -24.6817 1.82695
      vertex 19.0702 -21.1796 -5
      vertex 14.25 -24.6817 -5
    endloop
  endfacet
  facet normal -0.406737 0.913545 0
    outer loop
      vertex 14.25 -24.6817 1.82695
      vertex 14.25 -24.6817 -5
      vertex 8.80698 -27.1051 1.17761
    endloop
  endfacet
  facet normal -0.406737 0.913545 0
    outer loop
      vertex 8.80698 -27.1051 1.17761
      vertex 14.25 -24.6817 -5
      vertex 8.80698 -27.1051 -5
    endloop
  endfacet
  facet normal -0.207912 0.978148 0
    outer loop
      vertex 8.80698 -27.1051 1.17761
      vertex 8.80698 -27.1051 -5
      vertex 2.97906 -28.3439 0.845681
    endloop
  endfacet
  facet normal -0.207912 0.978148 0
    outer loop
      vertex 2.97906 -28.3439 0.845681
      vertex 8.80698 -27.1051 -5
      vertex 2.97906 -28.3439 -5
    endloop
  endfacet
  facet normal 0 1 0
    outer loop
      vertex 2.97906 -28.3439 0.845681
      vertex 2.97906 -28.3439 -5
      vertex -2.97906 -28.3439 0.845681
    endloop
  endfacet
  facet normal 0 1 -0
    outer loop
      vertex -2.97906 -28.3439 0.845681
      vertex 2.97906 -28.3439 -5
      vertex -2.97906 -28.3439 -5
    endloop
  endfacet
  facet normal 0.207912 0.978148 -0
    outer loop
      vertex -2.97906 -28.3439 0.845681
      vertex -2.97906 -28.3439 -5
      vertex -8.80698 -27.1051 1.17761
    endloop
  endfacet
  facet normal 0.207912 0.978148 -0
    outer loop
      vertex -8.80698 -27.1051 1.17761
      vertex -2.97906 -28.3439 -5
      vertex -8.80698 -27.1051 -5
    endloop
  endfacet
  facet normal 0.406737 0.913545 -0
    outer loop
      vertex -8.80698 -27.1051 1.17761
      vertex -8.80698 -27.1051 -5
      vertex -14.25 -24.6817 1.82695
    endloop
  endfacet
  facet normal 0.406737 0.913545 -0
    outer loop
      vertex -14.25 -24.6817 1.82695
      vertex -8.80698 -27.1051 -5
      vertex -14.25 -24.6817 -5
    endloop
  endfacet
  facet normal 0.587785 0.809017 -0
    outer loop
      vertex -14.25 -24.6817 1.82695
      vertex -14.25 -24.6817 -5
      vertex -19.0702 -21.1796 2.76534
    endloop
  endfacet
  facet normal 0.587785 0.809017 -0
    outer loop
      vertex -19.0702 -21.1796 2.76534
      vertex -14.25 -24.6817 -5
      vertex -19.0702 -21.1796 -5
    endloop
  endfacet
  facet normal 0.743145 0.669131 0
    outer loop
      vertex -23.057 -16.7519 3.95175
      vertex -19.0702 -21.1796 2.76534
      vertex -19.0702 -21.1796 -5
    endloop
  endfacet
  facet normal 0.743145 0.669131 0
    outer loop
      vertex -23.057 -16.7519 -5
      vertex -23.057 -16.7519 3.95175
      vertex -19.0702 -21.1796 -5
    endloop
  endfacet
  facet normal 0.866025 0.5 -5.50248e-16
    outer loop
      vertex -23.057 -16.7519 3.95175
      vertex -25.5118 -12.5 0
      vertex -24.0422 -15.0455 4.40897
    endloop
  endfacet
  facet normal 0.866025 0.5 0
    outer loop
      vertex -23.057 -16.7519 -5
      vertex -25.5118 -12.5 0
      vertex -23.057 -16.7519 3.95175
    endloop
  endfacet
  facet normal 0.866025 0.5 -7.0481e-16
    outer loop
      vertex -26.036 -11.592 0
      vertex -25.5118 -12.5 0
      vertex -23.057 -16.7519 -5
    endloop
  endfacet
  facet normal 0.866025 0.5 0
    outer loop
      vertex -26.036 -11.592 -5
      vertex -26.036 -11.592 0
      vertex -23.057 -16.7519 -5
    endloop
  endfacet
  facet normal 0.951057 0.309017 0
    outer loop
      vertex -27.8772 -5.92548 0
      vertex -26.036 -11.592 0
      vertex -26.036 -11.592 -5
    endloop
  endfacet
  facet normal 0.951057 0.309017 0
    outer loop
      vertex -27.8772 -5.92548 -5
      vertex -27.8772 -5.92548 0
      vertex -26.036 -11.592 -5
    endloop
  endfacet
  facet normal 0 0 1
    outer loop
      vertex -30.8116 6.54922 0
      vertex -31.5 0 0
      vertex -30.8116 -6.54922 0
    endloop
  endfacet
  facet normal -0 0 1
    outer loop
      vertex -27.8772 -5.92548 0
      vertex -30.8116 6.54922 0
      vertex -28.8781 -12.5 0
    endloop
  endfacet
  facet normal 0 0 1
    outer loop
      vertex -28.8781 -12.5 0
      vertex -30.8116 6.54922 0
      vertex -30.8116 -6.54922 0
    endloop
  endfacet
  facet normal -0 0 1
    outer loop
      vertex -25.5118 -12.5 0
      vertex -26.036 -11.592 0
      vertex -28.8781 -12.5 0
    endloop
  endfacet
  facet normal -0 0 1
    outer loop
      vertex -26.036 -11.592 0
      vertex -27.8772 -5.92548 0
      vertex -28.8781 -12.5 0
    endloop
  endfacet
  facet normal -0 0 1
    outer loop
      vertex -27.8772 5.92548 0
      vertex -30.8116 6.54922 0
      vertex -28.5 0 0
    endloop
  endfacet
  facet normal 0 0 1
    outer loop
      vertex -26.036 11.592 0
      vertex -30.8116 6.54922 0
      vertex -27.8772 5.92548 0
    endloop
  endfacet
  facet normal 0 0 1
    outer loop
      vertex -23.057 16.7519 0
      vertex -30.8116 6.54922 0
      vertex -26.036 11.592 0
    endloop
  endfacet
  facet normal 0 0 1
    outer loop
      vertex -15.75 27.2798 0
      vertex -30.8116 6.54922 0
      vertex -23.057 16.7519 0
    endloop
  endfacet
  facet normal 0 0 1
    outer loop
      vertex -15.75 27.2798 0
      vertex -23.057 16.7519 0
      vertex -19.0702 21.1796 0
    endloop
  endfacet
  facet normal 0 0 1
    outer loop
      vertex -9.73404 29.9583 0
      vertex -19.0702 21.1796 0
      vertex -14.25 24.6817 0
    endloop
  endfacet
  facet normal 0 0 1
    outer loop
      vertex -3.29265 31.3274 0
      vertex -14.25 24.6817 0
      vertex -8.80698 27.1051 0
    endloop
  endfacet
  facet normal 0 0 1
    outer loop
      vertex 3.29265 31.3274 0
      vertex -8.80698 27.1051 0
      vertex -2.97906 28.3439 0
    endloop
  endfacet
  facet normal 0 0 1
    outer loop
      vertex 9.73404 29.9583 0
      vertex -2.97906 28.3439 0
      vertex 2.97906 28.3439 0
    endloop
  endfacet
  facet normal -0 0 1
    outer loop
      vertex 15.75 27.2798 0
      vertex 2.97906 28.3439 0
      vertex 8.80698 27.1051 0
    endloop
  endfacet
  facet normal 0 0 1
    outer loop
      vertex 21.0776 23.4091 0
      vertex 8.80698 27.1051 0
      vertex 14.25 24.6817 0
    endloop
  endfacet
  facet normal 0 0 1
    outer loop
      vertex 25.484 18.5152 0
      vertex 14.25 24.6817 0
      vertex 19.0702 21.1796 0
    endloop
  endfacet
  facet normal 0 0 1
    outer loop
      vertex 28.7767 12.8122 0
      vertex 19.0702 21.1796 0
      vertex 23.057 16.7519 0
    endloop
  endfacet
  facet normal 0 0 1
    outer loop
      vertex 30.8116 6.54922 0
      vertex 23.057 16.7519 0
      vertex 26.036 11.592 0
    endloop
  endfacet
  facet normal 0 0 1
    outer loop
      vertex 31.5 0 0
      vertex 26.036 11.592 0
      vertex 27.8772 5.92548 0
    endloop
  endfacet
  facet normal 0 0 1
    outer loop
      vertex 30.8116 -6.54922 0
      vertex 27.8772 5.92548 0
      vertex 28.5 0 0
    endloop
  endfacet
  facet normal 0 0 1
    outer loop
      vertex 28.8781 -12.5 0
      vertex 28.5 0 0
      vertex 27.8772 -5.92548 0
    endloop
  endfacet
  facet normal 0 0 1
    outer loop
      vertex 28.8781 -12.5 0
      vertex 27.8772 -5.92548 0
      vertex 26.036 -11.592 0
    endloop
  endfacet
  facet normal -0 0 1
    outer loop
      vertex 28.8781 -12.5 0
      vertex 26.036 -11.592 0
      vertex 25.5118 -12.5 0
    endloop
  endfacet
  facet normal -0 0 1
    outer loop
      vertex 30.8116 -6.54922 0
      vertex 28.5 0 0
      vertex 28.8781 -12.5 0
    endloop
  endfacet
  facet normal -0 0 1
    outer loop
      vertex 31.5 0 0
      vertex 27.8772 5.92548 0
      vertex 30.8116 -6.54922 0
    endloop
  endfacet
  facet normal -0 -0 1
    outer loop
      vertex 30.8116 6.54922 0
      vertex 26.036 11.592 0
      vertex 31.5 0 0
    endloop
  endfacet
  facet normal -0 -0 1
    outer loop
      vertex 28.7767 12.8122 0
      vertex 23.057 16.7519 0
      vertex 30.8116 6.54922 0
    endloop
  endfacet
  facet normal -0 -0 1
    outer loop
      vertex 25.484 18.5152 0
      vertex 19.0702 21.1796 0
      vertex 28.7767 12.8122 0
    endloop
  endfacet
  facet normal -0 -0 1
    outer loop
      vertex 21.0776 23.4091 0
      vertex 14.25 24.6817 0
      vertex 25.484 18.5152 0
    endloop
  endfacet
  facet normal 0 -0 1
    outer loop
      vertex 15.75 27.2798 0
      vertex 8.80698 27.1051 0
      vertex 21.0776 23.4091 0
    endloop
  endfacet
  facet normal 0 -0 1
    outer loop
      vertex 9.73404 29.9583 0
      vertex 2.97906 28.3439 0
      vertex 15.75 27.2798 0
    endloop
  endfacet
  facet normal 0 -0 1
    outer loop
      vertex 3.29265 31.3274 0
      vertex -2.97906 28.3439 0
      vertex 9.73404 29.9583 0
    endloop
  endfacet
  facet normal 0 -0 1
    outer loop
      vertex -3.29265 31.3274 0
      vertex -8.80698 27.1051 0
      vertex 3.29265 31.3274 0
    endloop
  endfacet
  facet normal 0 -0 1
    outer loop
      vertex -9.73404 29.9583 0
      vertex -14.25 24.6817 0
      vertex -3.29265 31.3274 0
    endloop
  endfacet
  facet normal 0 -0 1
    outer loop
      vertex -15.75 27.2798 0
      vertex -19.0702 21.1796 0
      vertex -9.73404 29.9583 0
    endloop
  endfacet
  facet normal 0 -0 1
    outer loop
      vertex -21.0776 23.4091 0
      vertex -30.8116 6.54922 0
      vertex -15.75 27.2798 0
    endloop
  endfacet
  facet normal 0 -0 1
    outer loop
      vertex -25.484 18.5152 0
      vertex -30.8116 6.54922 0
      vertex -21.0776 23.4091 0
    endloop
  endfacet
  facet normal 0 -0 1
    outer loop
      vertex -28.7767 12.8122 0
      vertex -30.8116 6.54922 0
      vertex -25.484 18.5152 0
    endloop
  endfacet
  facet normal 0 0 1
    outer loop
      vertex -27.8772 -5.92548 0
      vertex -28.5 0 0
      vertex -30.8116 6.54922 0
    endloop
  endfacet
  facet normal 0 0.866025 0.5
    outer loop
      vertex -27.4873 -15.0455 4.40897
      vertex -27.4873 -27.25 25.5477
      vertex -24.0422 -27.25 25.5477
    endloop
  endfacet
  facet normal 0 0.866025 0.5
    outer loop
      vertex -27.4873 -15.0455 4.40897
      vertex -24.0422 -27.25 25.5477
      vertex -24.0422 -15.0455 4.40897
    endloop
  endfacet
  facet normal 0 0.866025 0.5
    outer loop
      vertex -27.4873 -15.0455 4.40897
      vertex -24.0422 -15.0455 4.40897
      vertex -28.7767 -12.8122 0.540753
    endloop
  endfacet
  facet normal 0 0.866025 0.5
    outer loop
      vertex -24.0422 -15.0455 4.40897
      vertex -25.5118 -12.5 0
      vertex -28.7767 -12.8122 0.540753
    endloop
  endfacet
  facet normal -0 0.866025 0.5
    outer loop
      vertex -25.5118 -12.5 0
      vertex -28.8781 -12.5 0
      vertex -28.7767 -12.8122 0.540753
    endloop
  endfacet
  facet normal -0.866025 -0.433013 -0.25
    outer loop
      vertex -27.4873 -27.25 25.5477
      vertex -27.4873 -15.0455 4.40897
      vertex -25.484 -30.2549 23.8129
    endloop
  endfacet
  facet normal -0.866025 -0.433013 -0.25
    outer loop
      vertex -25.484 -30.2549 23.8129
      vertex -27.4873 -15.0455 4.40897
      vertex -25.484 -18.5152 3.47926
    endloop
  endfacet
  facet normal -0.743145 -0.579484 -0.334565
    outer loop
      vertex -25.484 -30.2549 23.8129
      vertex -25.484 -18.5152 3.47926
      vertex -21.0776 -34.493 21.366
    endloop
  endfacet
  facet normal -0.743145 -0.579484 -0.334565
    outer loop
      vertex -21.0776 -34.493 21.366
      vertex -25.484 -18.5152 3.47926
      vertex -21.0776 -23.4091 2.16796
    endloop
  endfacet
  facet normal -0.587785 -0.700629 -0.404509
    outer loop
      vertex -15.75 -37.8452 19.4306
      vertex -21.0776 -34.493 21.366
      vertex -21.0776 -23.4091 2.16796
    endloop
  endfacet
  facet normal -0.587785 -0.700629 -0.404509
    outer loop
      vertex -15.75 -27.2798 1.1308
      vertex -15.75 -37.8452 19.4306
      vertex -21.0776 -23.4091 2.16796
    endloop
  endfacet
  facet normal -0.406737 -0.791154 -0.456773
    outer loop
      vertex -9.73404 -40.1648 18.0914
      vertex -15.75 -37.8452 19.4306
      vertex -15.75 -27.2798 1.1308
    endloop
  endfacet
  facet normal -0.406737 -0.791154 -0.456773
    outer loop
      vertex -9.73404 -29.9583 0.413103
      vertex -9.73404 -40.1648 18.0914
      vertex -15.75 -27.2798 1.1308
    endloop
  endfacet
  facet normal -0.207912 -0.847101 -0.489074
    outer loop
      vertex -3.29265 -41.3506 17.4068
      vertex -9.73404 -40.1648 18.0914
      vertex -9.73404 -29.9583 0.413103
    endloop
  endfacet
  facet normal -0.207912 -0.847101 -0.489074
    outer loop
      vertex -3.29265 -31.3274 0.0462373
      vertex -3.29265 -41.3506 17.4068
      vertex -9.73404 -29.9583 0.413103
    endloop
  endfacet
  facet normal 0 -0.866025 -0.5
    outer loop
      vertex 3.29265 -41.3506 17.4068
      vertex -3.29265 -41.3506 17.4068
      vertex -3.29265 -31.3274 0.0462373
    endloop
  endfacet
  facet normal 0 -0.866025 -0.5
    outer loop
      vertex 3.29265 -31.3274 0.0462373
      vertex 3.29265 -41.3506 17.4068
      vertex -3.29265 -31.3274 0.0462373
    endloop
  endfacet
  facet normal 0.207912 -0.847101 -0.489074
    outer loop
      vertex 9.73404 -40.1648 18.0914
      vertex 3.29265 -41.3506 17.4068
      vertex 3.29265 -31.3274 0.0462373
    endloop
  endfacet
  facet normal 0.207912 -0.847101 -0.489074
    outer loop
      vertex 9.73404 -29.9583 0.413103
      vertex 9.73404 -40.1648 18.0914
      vertex 3.29265 -31.3274 0.0462373
    endloop
  endfacet
  facet normal 0.406737 -0.791154 -0.456773
    outer loop
      vertex 15.75 -37.8452 19.4306
      vertex 9.73404 -40.1648 18.0914
      vertex 9.73404 -29.9583 0.413103
    endloop
  endfacet
  facet normal 0.406737 -0.791154 -0.456773
    outer loop
      vertex 15.75 -27.2798 1.1308
      vertex 15.75 -37.8452 19.4306
      vertex 9.73404 -29.9583 0.413103
    endloop
  endfacet
  facet normal 0.587785 -0.700629 -0.404509
    outer loop
      vertex 21.0776 -34.493 21.366
      vertex 15.75 -37.8452 19.4306
      vertex 15.75 -27.2798 1.1308
    endloop
  endfacet
  facet normal 0.587785 -0.700629 -0.404509
    outer loop
      vertex 21.0776 -23.4091 2.16796
      vertex 21.0776 -34.493 21.366
      vertex 15.75 -27.2798 1.1308
    endloop
  endfacet
  facet normal 0.743145 -0.579484 -0.334565
    outer loop
      vertex 25.484 -30.2549 23.8129
      vertex 21.0776 -34.493 21.366
      vertex 21.0776 -23.4091 2.16796
    endloop
  endfacet
  facet normal 0.743145 -0.579484 -0.334565
    outer loop
      vertex 25.484 -18.5152 3.47926
      vertex 25.484 -30.2549 23.8129
      vertex 21.0776 -23.4091 2.16796
    endloop
  endfacet
  facet normal 0.866025 -0.433013 -0.25
    outer loop
      vertex 27.4873 -27.25 25.5477
      vertex 25.484 -30.2549 23.8129
      vertex 25.484 -18.5152 3.47926
    endloop
  endfacet
  facet normal 0.866025 -0.433013 -0.25
    outer loop
      vertex 27.4873 -15.0455 4.40897
      vertex 27.4873 -27.25 25.5477
      vertex 25.484 -18.5152 3.47926
    endloop
  endfacet
  facet normal 6.13089e-15 0.866025 0.5
    outer loop
      vertex 27.4873 -15.0455 4.40897
      vertex 28.7767 -12.8122 0.540753
      vertex 28.8781 -12.5 0
    endloop
  endfacet
  facet normal 0 0.866025 0.5
    outer loop
      vertex 27.4873 -15.0455 4.40897
      vertex 28.8781 -12.5 0
      vertex 25.5118 -12.5 0
    endloop
  endfacet
  facet normal -1.28606e-16 0.866025 0.5
    outer loop
      vertex 27.4873 -15.0455 4.40897
      vertex 25.5118 -12.5 0
      vertex 27.4873 -27.25 25.5477
    endloop
  endfacet
  facet normal 0 0.866025 0.5
    outer loop
      vertex 25.5118 -12.5 0
      vertex 24.0422 -15.0455 4.40897
      vertex 27.4873 -27.25 25.5477
    endloop
  endfacet
  facet normal 0 0.866025 0.5
    outer loop
      vertex 24.0422 -15.0455 4.40897
      vertex 24.0422 -27.25 25.5477
      vertex 27.4873 -27.25 25.5477
    endloop
  endfacet
  facet normal -0.743145 0.579484 0.334565
    outer loop
      vertex 23.057 -16.7519 3.95175
      vertex 19.0702 -21.1796 2.76534
      vertex 23.057 -28.7278 24.6946
    endloop
  endfacet
  facet normal -0.743145 0.579484 0.334565
    outer loop
      vertex 23.057 -28.7278 24.6946
      vertex 19.0702 -21.1796 2.76534
      vertex 19.0702 -32.5623 22.4807
    endloop
  endfacet
  facet normal -0.866025 0.433013 0.25
    outer loop
      vertex 24.0422 -15.0455 4.40897
      vertex 23.057 -16.7519 3.95175
      vertex 24.0422 -27.25 25.5477
    endloop
  endfacet
  facet normal -0.866025 0.433013 0.25
    outer loop
      vertex 24.0422 -27.25 25.5477
      vertex 23.057 -16.7519 3.95175
      vertex 23.057 -28.7278 24.6946
    endloop
  endfacet
  facet normal -0.587785 0.700629 0.404509
    outer loop
      vertex 19.0702 -21.1796 2.76534
      vertex 14.25 -24.6817 1.82695
      vertex 19.0702 -32.5623 22.4807
    endloop
  endfacet
  facet normal -0.587785 0.700629 0.404509
    outer loop
      vertex 19.0702 -32.5623 22.4807
      vertex 14.25 -24.6817 1.82695
      vertex 14.25 -35.5952 20.7296
    endloop
  endfacet
  facet normal -0.406737 0.791154 0.456773
    outer loop
      vertex 14.25 -24.6817 1.82695
      vertex 8.80698 -27.1051 1.17761
      vertex 14.25 -35.5952 20.7296
    endloop
  endfacet
  facet normal -0.406737 0.791154 0.456773
    outer loop
      vertex 14.25 -35.5952 20.7296
      vertex 8.80698 -27.1051 1.17761
      vertex 8.80698 -37.6939 19.518
    endloop
  endfacet
  facet normal -0.207912 0.847101 0.489074
    outer loop
      vertex 8.80698 -27.1051 1.17761
      vertex 2.97906 -28.3439 0.845681
      vertex 8.80698 -37.6939 19.518
    endloop
  endfacet
  facet normal -0.207912 0.847101 0.489074
    outer loop
      vertex 8.80698 -37.6939 19.518
      vertex 2.97906 -28.3439 0.845681
      vertex 2.97906 -38.7667 18.8986
    endloop
  endfacet
  facet normal -0 0.866025 0.5
    outer loop
      vertex 2.97906 -28.3439 0.845681
      vertex -2.97906 -28.3439 0.845681
      vertex 2.97906 -38.7667 18.8986
    endloop
  endfacet
  facet normal -0 0.866025 0.5
    outer loop
      vertex 2.97906 -38.7667 18.8986
      vertex -2.97906 -28.3439 0.845681
      vertex -2.97906 -38.7667 18.8986
    endloop
  endfacet
  facet normal 0.207912 0.847101 0.489074
    outer loop
      vertex -2.97906 -28.3439 0.845681
      vertex -8.80698 -27.1051 1.17761
      vertex -2.97906 -38.7667 18.8986
    endloop
  endfacet
  facet normal 0.207912 0.847101 0.489074
    outer loop
      vertex -2.97906 -38.7667 18.8986
      vertex -8.80698 -27.1051 1.17761
      vertex -8.80698 -37.6939 19.518
    endloop
  endfacet
  facet normal 0.406737 0.791154 0.456773
    outer loop
      vertex -8.80698 -27.1051 1.17761
      vertex -14.25 -24.6817 1.82695
      vertex -8.80698 -37.6939 19.518
    endloop
  endfacet
  facet normal 0.406737 0.791154 0.456773
    outer loop
      vertex -8.80698 -37.6939 19.518
      vertex -14.25 -24.6817 1.82695
      vertex -14.25 -35.5952 20.7296
    endloop
  endfacet
  facet normal 0.587785 0.700629 0.404509
    outer loop
      vertex -14.25 -24.6817 1.82695
      vertex -19.0702 -21.1796 2.76534
      vertex -14.25 -35.5952 20.7296
    endloop
  endfacet
  facet normal 0.587785 0.700629 0.404509
    outer loop
      vertex -14.25 -35.5952 20.7296
      vertex -19.0702 -21.1796 2.76534
      vertex -19.0702 -32.5623 22.4807
    endloop
  endfacet
  facet normal 0.743145 0.579484 0.334565
    outer loop
      vertex -19.0702 -32.5623 22.4807
      vertex -19.0702 -21.1796 2.76534
      vertex -23.057 -16.7519 3.95175
    endloop
  endfacet
  facet normal 0.743145 0.579484 0.334565
    outer loop
      vertex -23.057 -28.7278 24.6946
      vertex -19.0702 -32.5623 22.4807
      vertex -23.057 -16.7519 3.95175
    endloop
  endfacet
  facet normal 0.866025 0.433013 0.25
    outer loop
      vertex -23.057 -28.7278 24.6946
      vertex -23.057 -16.7519 3.95175
      vertex -24.0422 -15.0455 4.40897
    endloop
  endfacet
  facet normal 0.866025 0.433013 0.25
    outer loop
      vertex -24.0422 -27.25 25.5477
      vertex -23.057 -28.7278 24.6946
      vertex -24.0422 -15.0455 4.40897
    endloop
  endfacet
  facet normal 0 -0.5 0.866025
    outer loop
      vertex -24.0422 -27.25 25.5477
      vertex -27.4873 -27.25 25.5477
      vertex -25.484 -30.2549 23.8129
    endloop
  endfacet
  facet normal 3.77035e-15 -0.5 0.866025
    outer loop
      vertex -23.057 -28.7278 24.6946
      vertex -24.0422 -27.25 25.5477
      vertex -21.0776 -34.493 21.366
    endloop
  endfacet
  facet normal 5.21309e-16 -0.5 0.866025
    outer loop
      vertex -21.0776 -34.493 21.366
      vertex -24.0422 -27.25 25.5477
      vertex -25.484 -30.2549 23.8129
    endloop
  endfacet
  facet normal 1.61066e-15 -0.5 0.866025
    outer loop
      vertex -19.0702 -32.5623 22.4807
      vertex -23.057 -28.7278 24.6946
      vertex -15.75 -37.8452 19.4306
    endloop
  endfacet
  facet normal -4.02266e-16 -0.5 0.866025
    outer loop
      vertex -14.25 -35.5952 20.7296
      vertex -19.0702 -32.5623 22.4807
      vertex -9.73404 -40.1648 18.0914
    endloop
  endfacet
  facet normal 3.31446e-16 -0.5 0.866025
    outer loop
      vertex -2.97906 -38.7667 18.8986
      vertex -8.80698 -37.6939 19.518
      vertex -3.29265 -41.3506 17.4068
    endloop
  endfacet
  facet normal 0 -0.5 0.866025
    outer loop
      vertex 2.97906 -38.7667 18.8986
      vertex -2.97906 -38.7667 18.8986
      vertex 3.29265 -41.3506 17.4068
    endloop
  endfacet
  facet normal -7.95471e-17 -0.5 0.866025
    outer loop
      vertex 8.80698 -37.6939 19.518
      vertex 2.97906 -38.7667 18.8986
      vertex 9.73404 -40.1648 18.0914
    endloop
  endfacet
  facet normal -6.93866e-17 -0.5 0.866025
    outer loop
      vertex 14.25 -35.5952 20.7296
      vertex 8.80698 -37.6939 19.518
      vertex 15.75 -37.8452 19.4306
    endloop
  endfacet
  facet normal -7.25553e-17 -0.5 0.866025
    outer loop
      vertex 19.0702 -32.5623 22.4807
      vertex 14.25 -35.5952 20.7296
      vertex 21.0776 -34.493 21.366
    endloop
  endfacet
  facet normal 0 -0.5 0.866025
    outer loop
      vertex 27.4873 -27.25 25.5477
      vertex 24.0422 -27.25 25.5477
      vertex 25.484 -30.2549 23.8129
    endloop
  endfacet
  facet normal -1.19366e-15 -0.5 0.866025
    outer loop
      vertex 24.0422 -27.25 25.5477
      vertex 23.057 -28.7278 24.6946
      vertex 25.484 -30.2549 23.8129
    endloop
  endfacet
  facet normal -4.64903e-16 -0.5 0.866025
    outer loop
      vertex 25.484 -30.2549 23.8129
      vertex 19.0702 -32.5623 22.4807
      vertex 21.0776 -34.493 21.366
    endloop
  endfacet
  facet normal -2.4695e-16 -0.5 0.866025
    outer loop
      vertex 21.0776 -34.493 21.366
      vertex 14.25 -35.5952 20.7296
      vertex 15.75 -37.8452 19.4306
    endloop
  endfacet
  facet normal -1.14916e-16 -0.5 0.866025
    outer loop
      vertex 15.75 -37.8452 19.4306
      vertex 8.80698 -37.6939 19.518
      vertex 9.73404 -40.1648 18.0914
    endloop
  endfacet
  facet normal 2.09493e-16 -0.5 0.866025
    outer loop
      vertex 9.73404 -40.1648 18.0914
      vertex 2.97906 -38.7667 18.8986
      vertex 3.29265 -41.3506 17.4068
    endloop
  endfacet
  facet normal 0 -0.5 0.866025
    outer loop
      vertex 3.29265 -41.3506 17.4068
      vertex -2.97906 -38.7667 18.8986
      vertex -3.29265 -41.3506 17.4068
    endloop
  endfacet
  facet normal -4.39602e-16 -0.5 0.866025
    outer loop
      vertex -3.29265 -41.3506 17.4068
      vertex -8.80698 -37.6939 19.518
      vertex -9.73404 -40.1648 18.0914
    endloop
  endfacet
  facet normal -6.2448e-16 -0.5 0.866025
    outer loop
      vertex -8.80698 -37.6939 19.518
      vertex -14.25 -35.5952 20.7296
      vertex -9.73404 -40.1648 18.0914
    endloop
  endfacet
  facet normal 9.57095e-16 -0.5 0.866025
    outer loop
      vertex -9.73404 -40.1648 18.0914
      vertex -19.0702 -32.5623 22.4807
      vertex -15.75 -37.8452 19.4306
    endloop
  endfacet
  facet normal -3.31917e-16 -0.5 0.866025
    outer loop
      vertex -15.75 -37.8452 19.4306
      vertex -23.057 -28.7278 24.6946
      vertex -21.0776 -34.493 21.366
    endloop
  endfacet
  facet normal -6.45237e-16 -0.5 0.866025
    outer loop
      vertex 23.057 -28.7278 24.6946
      vertex 19.0702 -32.5623 22.4807
      vertex 25.484 -30.2549 23.8129
    endloop
  endfacet
endsolid OpenSCAD_Model
